<svg aria-hidden="true" style="position:absolute;width:0;height:0;overflow:hidden" xmlns="http://www.w3.org/2000/svg">
  <defs>
    <symbol id="lets-get-started" viewBox="0 0 324 32">
      <path d="M10.286 14.571c0-.304-.125-.589-.339-.804l-8-8a1.137 1.137 0 0 0-.804-.339C.518 5.428 0 5.946 0 6.571v16c0 .625.518 1.143 1.143 1.143.304 0 .589-.125.804-.339l8-8c.214-.214.339-.5.339-.804zm25.67 7.205h7.168V26h-12.64V3.536h5.472v18.24zM51.206 7.92v4.544h7.328v4.224h-7.328v4.928h8.288V26h-13.76V3.536h13.76V7.92h-8.288zm28.001-4.384V7.92h-5.952V26h-5.472V7.92h-5.952V3.536h17.376zM85.761.4l-.416 7.072h-3.68L81.249.4h4.512zm11.382 25.824c-1.643 0-3.115-.267-4.416-.8s-2.347-1.323-3.136-2.368c-.768-1.045-1.173-2.304-1.216-3.776h5.824c.085.832.373 1.472.864 1.92.491.427 1.131.64 1.92.64.811 0 1.451-.181 1.92-.544.469-.384.704-.907.704-1.568 0-.555-.192-1.013-.576-1.376-.363-.363-.821-.661-1.376-.896-.533-.235-1.301-.501-2.304-.8-1.451-.448-2.635-.896-3.552-1.344s-1.707-1.109-2.368-1.984c-.661-.875-.992-2.016-.992-3.424 0-2.091.757-3.723 2.272-4.896 1.515-1.195 3.488-1.792 5.92-1.792 2.475 0 4.469.597 5.984 1.792 1.515 1.173 2.325 2.816 2.432 4.928h-5.92c-.043-.725-.309-1.291-.8-1.696-.491-.427-1.12-.64-1.888-.64-.661 0-1.195.181-1.6.544-.405.341-.608.843-.608 1.504 0 .725.341 1.291 1.024 1.696s1.749.843 3.2 1.312c1.451.491 2.624.96 3.52 1.408.917.448 1.707 1.099 2.368 1.952s.992 1.952.992 3.296c0 1.28-.331 2.443-.992 3.488-.64 1.045-1.579 1.877-2.816 2.496s-2.699.928-4.384.928zm33.253-15.584a3.976 3.976 0 0 0-1.76-1.696c-.747-.405-1.632-.608-2.656-.608-1.771 0-3.189.587-4.256 1.76-1.067 1.152-1.6 2.699-1.6 4.64 0 2.069.555 3.691 1.664 4.864 1.131 1.152 2.677 1.728 4.64 1.728 1.344 0 2.475-.341 3.392-1.024.939-.683 1.621-1.664 2.048-2.944h-6.944v-4.032h11.904v5.088c-.405 1.365-1.099 2.635-2.08 3.808-.96 1.173-2.187 2.123-3.68 2.848s-3.179 1.088-5.056 1.088c-2.219 0-4.203-.48-5.952-1.44a10.62 10.62 0 0 1-4.064-4.064c-.96-1.728-1.44-3.701-1.44-5.92s.48-4.192 1.44-5.92c.981-1.749 2.336-3.104 4.064-4.064 1.728-.981 3.701-1.472 5.92-1.472 2.688 0 4.949.651 6.784 1.952 1.856 1.301 3.083 3.104 3.68 5.408h-6.048zm14.935-2.72v4.544h7.328v4.224h-7.328v4.928h8.288V26h-13.76V3.536h13.76V7.92h-8.288zm28.001-4.384V7.92h-5.952V26h-5.472V7.92h-5.952V3.536h17.376zm17.655 22.688c-1.643 0-3.115-.267-4.416-.8s-2.347-1.323-3.136-2.368c-.768-1.045-1.173-2.304-1.216-3.776h5.824c.085.832.373 1.472.864 1.92.491.427 1.131.64 1.92.64.811 0 1.451-.181 1.92-.544.469-.384.704-.907.704-1.568 0-.555-.192-1.013-.576-1.376-.363-.363-.821-.661-1.376-.896-.533-.235-1.301-.501-2.304-.8-1.451-.448-2.635-.896-3.552-1.344s-1.707-1.109-2.368-1.984c-.661-.875-.992-2.016-.992-3.424 0-2.091.757-3.723 2.272-4.896 1.515-1.195 3.488-1.792 5.92-1.792 2.475 0 4.469.597 5.984 1.792 1.515 1.173 2.325 2.816 2.432 4.928h-5.92c-.043-.725-.309-1.291-.8-1.696-.491-.427-1.12-.64-1.888-.64-.661 0-1.195.181-1.6.544-.405.341-.608.843-.608 1.504 0 .725.341 1.291 1.024 1.696s1.749.843 3.2 1.312c1.451.491 2.624.96 3.52 1.408.917.448 1.707 1.099 2.368 1.952s.992 1.952.992 3.296c0 1.28-.331 2.443-.992 3.488-.64 1.045-1.579 1.877-2.816 2.496s-2.699.928-4.384.928zm27.719-22.688V7.92h-5.952V26h-5.472V7.92h-5.952V3.536h17.376zm16.73 18.496h-8.384L225.708 26h-5.728l8.128-22.464h6.336L242.572 26h-5.792l-1.344-3.968zm-1.408-4.224-2.784-8.224-2.752 8.224h5.536zM256.502 26l-4.672-8.48h-1.312V26h-5.472V3.536h9.184c1.772 0 3.276.309 4.512.928 1.26.619 2.198 1.472 2.816 2.56.62 1.067.928 2.261.928 3.584 0 1.493-.426 2.827-1.28 4-.832 1.173-2.068 2.005-3.712 2.496L262.678 26h-6.176zm-5.984-12.352h3.392c1.004 0 1.75-.245 2.24-.736.512-.491.768-1.184.768-2.08 0-.853-.256-1.525-.768-2.016-.49-.491-1.236-.736-2.24-.736h-3.392v5.568zm31.564-10.112V7.92h-5.952V26h-5.472V7.92h-5.952V3.536h17.376zM290.3 7.92v4.544h7.328v4.224H290.3v4.928h8.288V26h-13.76V3.536h13.76V7.92H290.3zm20.256-4.384c2.368 0 4.438.469 6.208 1.408s3.136 2.261 4.096 3.968c.982 1.685 1.472 3.637 1.472 5.856 0 2.197-.49 4.149-1.472 5.856-.96 1.707-2.336 3.029-4.128 3.968-1.77.939-3.83 1.408-6.176 1.408h-8.416V3.536h8.416zm-.352 17.728c2.07 0 3.68-.565 4.832-1.696s1.728-2.731 1.728-4.8-.576-3.68-1.728-4.832c-1.152-1.152-2.762-1.728-4.832-1.728h-2.592v13.056h2.592zM11.438 29.2h17.075v1.6H11.438v-1.6z"/>
      <path d="M28.5 29.2h294.92v1.6H28.5v-1.6z"/>
    </symbol>
    <symbol id="Read-More" viewBox="0 0 218 32">
      <path d="M10.971 13.409c0-.324-.133-.629-.362-.857L2.076 4.019a1.21 1.21 0 0 0-.857-.362C.552 3.657 0 4.209 0 4.876v17.067c0 .667.552 1.219 1.219 1.219.324 0 .629-.133.857-.362l8.533-8.533a1.21 1.21 0 0 0 .362-.857zM44.736 25.6l-4.983-9.045h-1.399V25.6h-5.837V1.638h9.796c1.889 0 3.493.33 4.813.99 1.343.66 2.344 1.57 3.004 2.731.66 1.138.99 2.412.99 3.823 0 1.593-.455 3.015-1.365 4.267-.887 1.252-2.207 2.139-3.959 2.662l5.53 9.489h-6.588zm-6.383-13.175h3.618c1.069 0 1.866-.262 2.389-.785.546-.523.819-1.263.819-2.219 0-.91-.273-1.627-.819-2.15-.523-.523-1.32-.785-2.389-.785h-3.618v5.939zm34.384 3.345c0 .546-.034 1.115-.102 1.707h-13.21c.091 1.183.467 2.093 1.126 2.731.683.614 1.513.922 2.492.922 1.456 0 2.469-.614 3.038-1.843h6.212a8.414 8.414 0 0 1-1.741 3.379c-.819 1.001-1.855 1.786-3.106 2.355s-2.651.853-4.198.853c-1.866 0-3.527-.398-4.983-1.195s-2.594-1.934-3.413-3.413c-.819-1.479-1.229-3.209-1.229-5.188s.398-3.709 1.195-5.188c.819-1.479 1.957-2.617 3.413-3.413s3.129-1.195 5.018-1.195c1.843 0 3.482.387 4.915 1.161s2.549 1.877 3.345 3.311c.819 1.434 1.229 3.106 1.229 5.018zm-5.973-1.536c0-1.001-.341-1.798-1.024-2.389s-1.536-.887-2.56-.887c-.979 0-1.809.284-2.492.853-.66.569-1.069 1.377-1.229 2.423h7.305zm7.892 1.809c0-1.957.364-3.675 1.092-5.154.751-1.479 1.763-2.617 3.038-3.413s2.697-1.195 4.267-1.195c1.343 0 2.514.273 3.516.819 1.024.546 1.809 1.263 2.355 2.15V6.553h5.837v19.046h-5.837v-2.697c-.569.887-1.365 1.604-2.389 2.15-1.001.546-2.173.819-3.516.819-1.548 0-2.958-.398-4.233-1.195-1.274-.819-2.287-1.968-3.038-3.447-.728-1.502-1.092-3.231-1.092-5.188zm14.268.034c0-1.456-.41-2.605-1.229-3.447-.797-.842-1.775-1.263-2.935-1.263s-2.15.421-2.97 1.263c-.797.819-1.195 1.957-1.195 3.413s.398 2.617 1.195 3.482c.819.842 1.809 1.263 2.97 1.263s2.139-.421 2.935-1.263c.819-.842 1.229-1.991 1.229-3.447zm8.899-.034c0-1.957.364-3.675 1.092-5.154.751-1.479 1.763-2.617 3.038-3.413s2.697-1.195 4.267-1.195c1.251 0 2.389.262 3.413.785 1.047.523 1.866 1.229 2.458 2.116V.341h5.837V25.6h-5.837v-2.731c-.546.91-1.331 1.638-2.355 2.185-1.001.546-2.173.819-3.516.819-1.57 0-2.992-.398-4.267-1.195-1.274-.819-2.287-1.968-3.038-3.447-.728-1.502-1.092-3.231-1.092-5.188zm14.267.034c0-1.456-.41-2.605-1.229-3.447-.797-.842-1.775-1.263-2.935-1.263s-2.15.421-2.97 1.263c-.797.819-1.195 1.957-1.195 3.413s.398 2.617 1.195 3.482c.819.842 1.809 1.263 2.97 1.263s2.139-.421 2.935-1.263c.819-.842 1.229-1.991 1.229-3.447zm44.429-14.439V25.6h-5.837V11.23l-5.359 14.37h-4.71l-5.393-14.404V25.6h-5.837V1.638h6.895l6.724 16.589 6.656-16.589h6.861zm12.867 24.235c-1.866 0-3.55-.398-5.052-1.195-1.479-.796-2.651-1.934-3.516-3.413-.842-1.479-1.263-3.209-1.263-5.188 0-1.957.432-3.675 1.297-5.154.865-1.502 2.048-2.651 3.55-3.447s3.186-1.195 5.052-1.195c1.866 0 3.55.398 5.052 1.195s2.685 1.946 3.55 3.447c.865 1.479 1.297 3.197 1.297 5.154s-.444 3.686-1.331 5.188a8.78 8.78 0 0 1-3.584 3.413c-1.502.796-3.186 1.195-5.052 1.195zm0-5.052c1.115 0 2.059-.41 2.833-1.229.796-.819 1.195-1.991 1.195-3.516s-.387-2.697-1.161-3.516c-.751-.819-1.684-1.229-2.799-1.229-1.138 0-2.082.41-2.833 1.229-.751.796-1.126 1.968-1.126 3.516 0 1.525.364 2.697 1.092 3.516.751.819 1.684 1.229 2.799 1.229zm18.9-11.093c.683-1.047 1.536-1.866 2.56-2.458 1.024-.614 2.162-.922 3.413-.922v6.178h-1.604c-1.456 0-2.549.319-3.277.956-.728.614-1.092 1.707-1.092 3.277V25.6h-5.837V6.554h5.837v3.174zm26.718 6.042c0 .546-.034 1.115-.102 1.707h-13.21c.091 1.183.467 2.093 1.126 2.731.683.614 1.513.922 2.492.922 1.456 0 2.469-.614 3.038-1.843h6.212a8.39 8.39 0 0 1-1.741 3.379c-.819 1.001-1.855 1.786-3.106 2.355s-2.651.853-4.198.853c-1.866 0-3.527-.398-4.983-1.195s-2.594-1.934-3.413-3.413c-.819-1.479-1.229-3.209-1.229-5.188s.398-3.709 1.195-5.188c.819-1.479 1.957-2.617 3.413-3.413s3.129-1.195 5.018-1.195c1.843 0 3.482.387 4.915 1.161s2.549 1.877 3.345 3.311c.819 1.434 1.229 3.106 1.229 5.018zm-5.974-1.536c0-1.001-.341-1.798-1.024-2.389s-1.536-.887-2.56-.887c-.979 0-1.809.284-2.492.853-.66.569-1.069 1.377-1.229 2.423h7.305zM12.2 29.013h18.214v1.707H12.2v-1.707z"/>
      <path d="M30.4 29.013h185.559v1.707H30.4v-1.707z"/>
    </symbol>
    <symbol id="Get-in-touch" viewBox="0 0 228 32">
      <path d="M10.286 14.571c0-.304-.125-.589-.339-.804l-8-8a1.137 1.137 0 0 0-.804-.339C.518 5.428 0 5.946 0 6.571v16c0 .625.518 1.143 1.143 1.143.304 0 .589-.125.804-.339l8-8c.214-.214.339-.5.339-.804zm35.11-3.931a3.976 3.976 0 0 0-1.76-1.696c-.747-.405-1.632-.608-2.656-.608-1.771 0-3.189.587-4.256 1.76-1.067 1.152-1.6 2.699-1.6 4.64 0 2.069.555 3.691 1.664 4.864 1.131 1.152 2.677 1.728 4.64 1.728 1.344 0 2.475-.341 3.392-1.024.939-.683 1.621-1.664 2.048-2.944h-6.944v-4.032h11.904v5.088c-.405 1.365-1.099 2.635-2.08 3.808-.96 1.173-2.187 2.123-3.68 2.848s-3.179 1.088-5.056 1.088c-2.219 0-4.203-.48-5.952-1.44a10.62 10.62 0 0 1-4.064-4.064c-.96-1.728-1.44-3.701-1.44-5.92s.48-4.192 1.44-5.92c.981-1.749 2.336-3.104 4.064-4.064 1.728-.981 3.701-1.472 5.92-1.472 2.688 0 4.949.651 6.784 1.952 1.856 1.301 3.083 3.104 3.68 5.408h-6.048zm26.295 6.144c0 .512-.032 1.045-.096 1.6H59.211c.085 1.109.437 1.963 1.056 2.56.64.576 1.419.864 2.336.864 1.365 0 2.315-.576 2.848-1.728h5.824a7.901 7.901 0 0 1-1.632 3.168c-.768.939-1.739 1.675-2.912 2.208s-2.485.8-3.936.8c-1.749 0-3.307-.373-4.672-1.12s-2.432-1.813-3.2-3.2c-.768-1.387-1.152-3.008-1.152-4.864s.373-3.477 1.12-4.864c.768-1.387 1.835-2.453 3.2-3.2s2.933-1.12 4.704-1.12c1.728 0 3.264.363 4.608 1.088s2.389 1.76 3.136 3.104c.768 1.344 1.152 2.912 1.152 4.704zm-5.6-1.44c0-.939-.32-1.685-.96-2.24s-1.44-.832-2.4-.832c-.917 0-1.696.267-2.336.8-.619.533-1.003 1.291-1.152 2.272h6.848zM84.53 21.36V26h-2.784c-1.984 0-3.531-.48-4.64-1.44-1.109-.981-1.664-2.571-1.664-4.768v-7.104h-2.176V8.144h2.176V3.792h5.472v4.352h3.584v4.544h-3.584v7.168c0 .533.128.917.384 1.152s.683.352 1.28.352h1.952zM97.111 6.288c-.96 0-1.749-.277-2.368-.832a2.823 2.823 0 0 1-.896-2.112c0-.853.299-1.557.896-2.112.619-.576 1.408-.864 2.368-.864.939 0 1.707.288 2.304.864.619.555.928 1.259.928 2.112 0 .832-.309 1.536-.928 2.112-.597.555-1.365.832-2.304.832zm2.72 1.856V26h-5.472V8.144h5.472zm14.846-.192c2.091 0 3.755.683 4.992 2.048 1.259 1.344 1.888 3.2 1.888 5.568V26h-5.44v-9.696c0-1.195-.309-2.123-.928-2.784s-1.451-.992-2.496-.992-1.877.331-2.496.992-.928 1.589-.928 2.784V26h-5.472V8.144h5.472v2.368c.555-.789 1.301-1.408 2.24-1.856.939-.469 1.995-.704 3.168-.704zm27.415 13.408V26h-2.784c-1.984 0-3.531-.48-4.64-1.44-1.109-.981-1.664-2.571-1.664-4.768v-7.104h-2.176V8.144h2.176V3.792h5.472v4.352h3.584v4.544h-3.584v7.168c0 .533.128.917.384 1.152s.683.352 1.28.352h1.952zm11.176 4.896c-1.749 0-3.328-.373-4.736-1.12a8.337 8.337 0 0 1-3.296-3.2c-.789-1.387-1.184-3.008-1.184-4.864 0-1.835.405-3.445 1.216-4.832.811-1.408 1.92-2.485 3.328-3.232s2.987-1.12 4.736-1.12c1.749 0 3.328.373 4.736 1.12s2.517 1.824 3.328 3.232c.811 1.387 1.216 2.997 1.216 4.832s-.416 3.456-1.248 4.864a8.233 8.233 0 0 1-3.36 3.2c-1.408.747-2.987 1.12-4.736 1.12zm0-4.736c1.045 0 1.931-.384 2.656-1.152.747-.768 1.12-1.867 1.12-3.296s-.363-2.528-1.088-3.296c-.704-.768-1.579-1.152-2.624-1.152-1.067 0-1.952.384-2.656 1.152-.704.747-1.056 1.845-1.056 3.296 0 1.429.341 2.528 1.024 3.296.704.768 1.579 1.152 2.624 1.152zm29.879-13.376V26h-5.472v-2.432c-.555.789-1.312 1.429-2.272 1.92-.939.469-1.984.704-3.136.704-1.365 0-2.571-.299-3.616-.896-1.045-.619-1.856-1.504-2.432-2.656s-.864-2.507-.864-4.064V8.144h5.44v9.696c0 1.195.309 2.123.928 2.784s1.451.992 2.496.992c1.067 0 1.909-.331 2.528-.992s.928-1.589.928-2.784V8.144h5.472zm2.843 8.928c0-1.856.373-3.477 1.12-4.864.768-1.387 1.824-2.453 3.168-3.2 1.365-.747 2.923-1.12 4.672-1.12 2.24 0 4.107.587 5.6 1.76 1.514 1.173 2.506 2.827 2.976 4.96h-5.824c-.491-1.365-1.44-2.048-2.848-2.048-1.003 0-1.803.395-2.4 1.184-.597.768-.896 1.877-.896 3.328s.299 2.571.896 3.36c.597.768 1.397 1.152 2.4 1.152 1.408 0 2.357-.683 2.848-2.048h5.824c-.47 2.091-1.462 3.733-2.976 4.928s-3.382 1.792-5.6 1.792c-1.749 0-3.307-.373-4.672-1.12-1.344-.747-2.4-1.813-3.168-3.2-.747-1.387-1.12-3.008-1.12-4.864zm31.438-9.12c2.048 0 3.692.683 4.928 2.048 1.238 1.344 1.856 3.2 1.856 5.568V26h-5.44v-9.696c0-1.195-.308-2.123-.928-2.784-.618-.661-1.45-.992-2.496-.992-1.044 0-1.876.331-2.496.992-.618.661-.928 1.589-.928 2.784V26h-5.472V2.32h5.472v8.224c.556-.789 1.312-1.419 2.272-1.888s2.038-.704 3.232-.704zM11.438 29.2h17.075v1.6H11.438v-1.6z"/>
      <path d="M28.5 29.2h197.536v1.6H28.5v-1.6z"/>
    </symbol>
    <symbol id="google-plus" viewBox="0 0 32 32">
      <path d="M10.181 14.294v3.494h5.775c-.231 1.5-1.744 4.394-5.775 4.394-3.475 0-6.313-2.881-6.313-6.431S6.706 9.32 10.181 9.32c1.981 0 3.3.844 4.056 1.569l2.762-2.662c-1.775-1.656-4.075-2.662-6.819-2.662C4.549 5.571-.001 10.121-.001 15.753s4.55 10.181 10.181 10.181c5.875 0 9.775-4.131 9.775-9.95a9.27 9.27 0 0 0-.163-1.688h-9.613zM32 14h-3v-3h-3v3h-3v3h3v3h3v-3h3z"/>
    </symbol>
    <symbol id="twitter" viewBox="0 0 32 32">
      <path d="M32 7.075a12.941 12.941 0 0 1-3.769 1.031 6.601 6.601 0 0 0 2.887-3.631 13.21 13.21 0 0 1-4.169 1.594A6.565 6.565 0 0 0 22.155 4a6.563 6.563 0 0 0-6.563 6.563c0 .512.056 1.012.169 1.494A18.635 18.635 0 0 1 2.23 5.195a6.56 6.56 0 0 0-.887 3.3 6.557 6.557 0 0 0 2.919 5.463 6.565 6.565 0 0 1-2.975-.819v.081a6.565 6.565 0 0 0 5.269 6.437 6.574 6.574 0 0 1-2.968.112 6.588 6.588 0 0 0 6.131 4.563 13.17 13.17 0 0 1-9.725 2.719 18.568 18.568 0 0 0 10.069 2.95c12.075 0 18.681-10.006 18.681-18.681 0-.287-.006-.569-.019-.85A13.216 13.216 0 0 0 32 7.076z"/>
    </symbol>
    <symbol id="facebook" viewBox="0 0 32 32">
      <path d="M19 6h5V0h-5c-3.86 0-7 3.14-7 7v3H8v6h4v16h6V16h5l1-6h-6V7c0-.542.458-1 1-1z"/>
    </symbol>
    <symbol id="linkedin2" viewBox="0 0 32 32">
      <path d="M12 12h5.535v2.837h.079c.77-1.381 2.655-2.837 5.464-2.837C28.92 12 30 15.637 30 20.367V30h-5.769v-8.54c0-2.037-.042-4.657-3.001-4.657-3.005 0-3.463 2.218-3.463 4.509V30H12V12zM2 12h6v18H2V12zM8 7a3 3 0 1 1-6 0 3 3 0 0 1 6 0z"/>
    </symbol>
  </defs>
</svg>